# xmcd
#
# Track frame offsets:
# 150
# 18100
# 39540
# 63387
# 91148
# 109945
# 130964
# 147655
# 170051
# 193981
# 217315
# 233823
#
# Disc length: 3387 seconds
#
#
# Revision: 0
# Processed by: cddbd v1.5.1PL0 Copyright (c) Steve Scherf et al.
# Submitted via: FreeRIP 2.90 
#
DISCID=b70d390c
DTITLE=戀戀琴聲 - 戀戀琴聲
DYEAR=1900
DGENRE=
TTITLE0=天天天藍
TTITLE1=玫瑰人生
TTITLE2=是否
TTITLE3=酒矸倘賣無
TTITLE4=第 5 音軌
TTITLE5=第 6 音軌
TTITLE6=第 7 音軌
TTITLE7=第 8 音軌
TTITLE8=第 9 音軌
TTITLE9=第 10 音軌
TTITLE10=第 11 音軌
TTITLE11=第 12 音軌
EXTD=
EXTT0=
EXTT1=
EXTT2=
EXTT3=
EXTT4=
EXTT5=
EXTT6=
EXTT7=
EXTT8=
EXTT9=
EXTT10=
EXTT11=
PLAYORDER=
